<mxfile host="app.diagrams.net" agent="Mozilla/5.0 (Windows NT 10.0; Win64; x64) AppleWebKit/537.36 (KHTML, like Gecko) Chrome/130.0.0.0 Safari/537.36" version="24.8.4">
  <diagram name="Page-1" id="mvzZ6NSyyMqOKgbDVsj_">
    <mxGraphModel dx="1900" dy="607" grid="1" gridSize="10" guides="1" tooltips="1" connect="1" arrows="1" fold="1" page="1" pageScale="1" pageWidth="850" pageHeight="1100" math="0" shadow="0">
      <root>
        <mxCell id="0" />
        <mxCell id="1" parent="0" />
        <mxCell id="NnzPZb60_fNd0hpzD29Z-30" style="edgeStyle=none;curved=1;rounded=0;orthogonalLoop=1;jettySize=auto;html=1;fontSize=12;startSize=8;endSize=8;" edge="1" parent="1" source="NnzPZb60_fNd0hpzD29Z-1">
          <mxGeometry relative="1" as="geometry">
            <mxPoint x="-110" y="210" as="targetPoint" />
          </mxGeometry>
        </mxCell>
        <mxCell id="NnzPZb60_fNd0hpzD29Z-1" value="u" style="rounded=0;whiteSpace=wrap;html=1;" vertex="1" parent="1">
          <mxGeometry x="60" y="110" width="470" height="200" as="geometry" />
        </mxCell>
        <mxCell id="NnzPZb60_fNd0hpzD29Z-16" value="" style="edgeStyle=none;curved=1;rounded=0;orthogonalLoop=1;jettySize=auto;html=1;fontSize=12;startSize=8;endSize=8;" edge="1" parent="1" source="NnzPZb60_fNd0hpzD29Z-2" target="NnzPZb60_fNd0hpzD29Z-9">
          <mxGeometry relative="1" as="geometry" />
        </mxCell>
        <mxCell id="NnzPZb60_fNd0hpzD29Z-2" value="" style="rounded=0;whiteSpace=wrap;html=1;fillColor=#ffe6cc;strokeColor=#d79b00;" vertex="1" parent="1">
          <mxGeometry x="90" y="240" width="120" height="60" as="geometry" />
        </mxCell>
        <mxCell id="NnzPZb60_fNd0hpzD29Z-14" value="" style="edgeStyle=none;curved=1;rounded=0;orthogonalLoop=1;jettySize=auto;html=1;fontSize=12;startSize=8;endSize=8;" edge="1" parent="1" source="NnzPZb60_fNd0hpzD29Z-3" target="NnzPZb60_fNd0hpzD29Z-11">
          <mxGeometry relative="1" as="geometry" />
        </mxCell>
        <mxCell id="NnzPZb60_fNd0hpzD29Z-3" value="" style="rounded=0;whiteSpace=wrap;html=1;" vertex="1" parent="1">
          <mxGeometry x="240" y="130" width="120" height="60" as="geometry" />
        </mxCell>
        <mxCell id="NnzPZb60_fNd0hpzD29Z-12" style="edgeStyle=none;curved=1;rounded=0;orthogonalLoop=1;jettySize=auto;html=1;fontSize=12;startSize=8;endSize=8;" edge="1" parent="1" source="NnzPZb60_fNd0hpzD29Z-8" target="NnzPZb60_fNd0hpzD29Z-1">
          <mxGeometry relative="1" as="geometry" />
        </mxCell>
        <mxCell id="NnzPZb60_fNd0hpzD29Z-13" value="" style="edgeStyle=none;curved=1;rounded=0;orthogonalLoop=1;jettySize=auto;html=1;fontSize=12;startSize=8;endSize=8;" edge="1" parent="1" source="NnzPZb60_fNd0hpzD29Z-8" target="NnzPZb60_fNd0hpzD29Z-3">
          <mxGeometry relative="1" as="geometry" />
        </mxCell>
        <mxCell id="NnzPZb60_fNd0hpzD29Z-8" value="name &amp;amp; street -1" style="rounded=0;whiteSpace=wrap;html=1;fillColor=#ffe6cc;strokeColor=#d79b00;" vertex="1" parent="1">
          <mxGeometry x="90" y="130" width="120" height="60" as="geometry" />
        </mxCell>
        <mxCell id="NnzPZb60_fNd0hpzD29Z-15" value="" style="edgeStyle=none;curved=1;rounded=0;orthogonalLoop=1;jettySize=auto;html=1;fontSize=12;startSize=8;endSize=8;" edge="1" parent="1" source="NnzPZb60_fNd0hpzD29Z-9" target="NnzPZb60_fNd0hpzD29Z-10">
          <mxGeometry relative="1" as="geometry" />
        </mxCell>
        <mxCell id="NnzPZb60_fNd0hpzD29Z-37" value="" style="edgeStyle=none;curved=1;rounded=0;orthogonalLoop=1;jettySize=auto;html=1;fontSize=12;startSize=8;endSize=8;" edge="1" parent="1" source="NnzPZb60_fNd0hpzD29Z-9" target="NnzPZb60_fNd0hpzD29Z-29">
          <mxGeometry relative="1" as="geometry" />
        </mxCell>
        <mxCell id="NnzPZb60_fNd0hpzD29Z-9" value="" style="rounded=0;whiteSpace=wrap;html=1;fillColor=#f8cecc;strokeColor=#b85450;" vertex="1" parent="1">
          <mxGeometry x="240" y="240" width="120" height="60" as="geometry" />
        </mxCell>
        <mxCell id="NnzPZb60_fNd0hpzD29Z-10" value="name &amp;amp; street -6" style="rounded=0;whiteSpace=wrap;html=1;fillColor=#e1d5e7;strokeColor=#9673a6;" vertex="1" parent="1">
          <mxGeometry x="390" y="240" width="120" height="60" as="geometry" />
        </mxCell>
        <mxCell id="NnzPZb60_fNd0hpzD29Z-11" value="" style="rounded=0;whiteSpace=wrap;html=1;fillColor=#d5e8d4;strokeColor=#82b366;" vertex="1" parent="1">
          <mxGeometry x="390" y="130" width="120" height="60" as="geometry" />
        </mxCell>
        <mxCell id="NnzPZb60_fNd0hpzD29Z-17" value="" style="rounded=0;whiteSpace=wrap;html=1;fillColor=#647687;fontColor=#ffffff;strokeColor=#314354;" vertex="1" parent="1">
          <mxGeometry x="70" y="360" width="450" height="140" as="geometry" />
        </mxCell>
        <mxCell id="NnzPZb60_fNd0hpzD29Z-18" value="public relations" style="rounded=1;whiteSpace=wrap;html=1;" vertex="1" parent="1">
          <mxGeometry x="100" y="410" width="80" height="40" as="geometry" />
        </mxCell>
        <mxCell id="NnzPZb60_fNd0hpzD29Z-19" value="ministers" style="rounded=1;whiteSpace=wrap;html=1;" vertex="1" parent="1">
          <mxGeometry x="250" y="410" width="70" height="40" as="geometry" />
        </mxCell>
        <mxCell id="NnzPZb60_fNd0hpzD29Z-20" value="cmo" style="rounded=1;whiteSpace=wrap;html=1;" vertex="1" parent="1">
          <mxGeometry x="400" y="410" width="70" height="40" as="geometry" />
        </mxCell>
        <mxCell id="NnzPZb60_fNd0hpzD29Z-22" style="edgeStyle=none;curved=1;rounded=0;orthogonalLoop=1;jettySize=auto;html=1;fontSize=12;startSize=8;endSize=8;" edge="1" parent="1" source="NnzPZb60_fNd0hpzD29Z-21">
          <mxGeometry relative="1" as="geometry">
            <mxPoint x="-80" y="430" as="targetPoint" />
          </mxGeometry>
        </mxCell>
        <mxCell id="NnzPZb60_fNd0hpzD29Z-21" value="main&lt;div&gt;entrence&lt;/div&gt;" style="rounded=1;whiteSpace=wrap;html=1;" vertex="1" parent="1">
          <mxGeometry x="20" y="370" width="50" height="120" as="geometry" />
        </mxCell>
        <mxCell id="NnzPZb60_fNd0hpzD29Z-23" value="cm office" style="rounded=0;whiteSpace=wrap;html=1;" vertex="1" parent="1">
          <mxGeometry x="210" y="330" width="120" height="30" as="geometry" />
        </mxCell>
        <mxCell id="NnzPZb60_fNd0hpzD29Z-24" value="" style="rounded=0;whiteSpace=wrap;html=1;fillColor=#dae8fc;strokeColor=#6c8ebf;" vertex="1" parent="1">
          <mxGeometry x="240" y="130" width="120" height="60" as="geometry" />
        </mxCell>
        <mxCell id="NnzPZb60_fNd0hpzD29Z-26" value="&lt;div&gt;&lt;br&gt;&lt;/div&gt;&lt;div&gt;. village,pin code --&amp;gt; vpc name,cidr&lt;/div&gt;&lt;div&gt;&lt;br&gt;&lt;/div&gt;&lt;div&gt;. streets,number --&amp;gt; subnets name ,cidr&lt;/div&gt;&lt;div&gt;&lt;br&gt;&lt;/div&gt;&lt;div&gt;. road --&amp;gt; routes&lt;/div&gt;&lt;div&gt;&lt;br&gt;&lt;/div&gt;&lt;div&gt;. mainroad ---&amp;gt; internet connections ,internet gateway&lt;/div&gt;&lt;div&gt;&lt;br&gt;&lt;/div&gt;&lt;div&gt;&amp;nbsp;main gate of house--&amp;gt; security groups/firewalls&lt;/div&gt;&lt;div&gt;&lt;br&gt;&lt;/div&gt;&lt;div&gt;&lt;br&gt;&lt;/div&gt;&lt;div&gt;. house --&amp;gt; ec2 instance&lt;/div&gt;" style="whiteSpace=wrap;html=1;aspect=fixed;fillColor=#bac8d3;strokeColor=#23445d;" vertex="1" parent="1">
          <mxGeometry x="150" y="510" width="275" height="275" as="geometry" />
        </mxCell>
        <mxCell id="NnzPZb60_fNd0hpzD29Z-29" value="village" style="text;html=1;align=center;verticalAlign=middle;whiteSpace=wrap;rounded=0;fontSize=16;" vertex="1" parent="1">
          <mxGeometry x="230" y="70" width="60" height="30" as="geometry" />
        </mxCell>
        <mxCell id="NnzPZb60_fNd0hpzD29Z-31" value="main road" style="text;strokeColor=none;align=center;fillColor=none;html=1;verticalAlign=middle;whiteSpace=wrap;rounded=0;fontSize=16;" vertex="1" parent="1">
          <mxGeometry x="-90" y="180" width="80" height="30" as="geometry" />
        </mxCell>
        <mxCell id="NnzPZb60_fNd0hpzD29Z-32" value="frontend -subnet" style="text;html=1;align=center;verticalAlign=middle;whiteSpace=wrap;rounded=0;fontSize=16;" vertex="1" parent="1">
          <mxGeometry x="370" y="460" width="140" height="30" as="geometry" />
        </mxCell>
        <mxCell id="NnzPZb60_fNd0hpzD29Z-36" style="edgeStyle=none;curved=1;rounded=0;orthogonalLoop=1;jettySize=auto;html=1;fontSize=12;startSize=8;endSize=8;" edge="1" parent="1" source="NnzPZb60_fNd0hpzD29Z-33" target="NnzPZb60_fNd0hpzD29Z-32">
          <mxGeometry relative="1" as="geometry" />
        </mxCell>
        <mxCell id="NnzPZb60_fNd0hpzD29Z-33" value="backend-subnet" style="text;html=1;align=center;verticalAlign=middle;whiteSpace=wrap;rounded=0;fontSize=16;" vertex="1" parent="1">
          <mxGeometry x="220" y="460" width="120" height="30" as="geometry" />
        </mxCell>
        <mxCell id="NnzPZb60_fNd0hpzD29Z-35" style="edgeStyle=none;curved=1;rounded=0;orthogonalLoop=1;jettySize=auto;html=1;fontSize=12;startSize=8;endSize=8;" edge="1" parent="1" source="NnzPZb60_fNd0hpzD29Z-34" target="NnzPZb60_fNd0hpzD29Z-33">
          <mxGeometry relative="1" as="geometry" />
        </mxCell>
        <mxCell id="NnzPZb60_fNd0hpzD29Z-34" value="bd-subnet" style="text;html=1;align=center;verticalAlign=middle;whiteSpace=wrap;rounded=0;fontSize=16;" vertex="1" parent="1">
          <mxGeometry x="90" y="460" width="80" height="30" as="geometry" />
        </mxCell>
      </root>
    </mxGraphModel>
  </diagram>
</mxfile>
